<?xml version="1.0" encoding="UTF-8"?>
<svg version="1.1" xmlns="http://www.w3.org/2000/svg" width="32" height="32">
<path d="M0 0 C4.8846525 2.26787438 7.73212562 5.1153475 10 10 C10.75381535 15.5997712 10.77303575 20.33499991 8.375 25.5 C3.80134327 30.3143755 0.6912538 32.25156236 -6 32.5 C-12.6912538 32.25156236 -15.80134327 30.3143755 -20.375 25.5 C-22.77303575 20.33499991 -22.75381535 15.5997712 -22 10 C-17.52212837 0.3553534 -9.85292056 -1.32635469 0 0 Z " fill="#D8AD72" transform="translate(22,0)"/>
<path d="M0 0 C4.8846525 2.26787438 7.73212562 5.1153475 10 10 C10.75381535 15.5997712 10.77303575 20.33499991 8.375 25.5 C5.78744771 28.22373925 3.26872449 30.15246007 0 32 C-0.66 32 -1.32 32 -2 32 C-2 31.34 -2 30.68 -2 30 C-2.99 29.67 -3.98 29.34 -5 29 C-5 28.01 -5 27.02 -5 26 C-4.360625 25.566875 -3.72125 25.13375 -3.0625 24.6875 C-0.67933367 23.08674484 -0.67933367 23.08674484 -0.25 19.8125 C-0.1675 18.884375 -0.085 17.95625 0 17 C-0.99 17 -1.98 17 -3 17 C-2.67 16.01 -2.34 15.02 -2 14 C-0.68 14.33 0.64 14.66 2 15 C0.64717831 10.57258356 -1.23298888 8.63690779 -5 6 C-5.66 5.67 -6.32 5.34 -7 5 C-7.3403125 5.8971875 -7.3403125 5.8971875 -7.6875 6.8125 C-9 9 -9 9 -11.5625 10.4375 C-14.25430285 11.79062712 -14.25430285 11.79062712 -14.8125 14.6875 C-14.874375 15.450625 -14.93625 16.21375 -15 17 C-15.33 16.34 -15.66 15.68 -16 15 C-16.99 15 -17.98 15 -19 15 C-19.31330487 9.77825222 -18.88015136 6.42308959 -16 2 C-11.20381303 -1.15085826 -5.50129961 -0.5899517 0 0 Z " fill="#79865C" transform="translate(22,0)"/>
<path d="M0 0 C1.05445313 0.00644531 2.10890625 0.01289062 3.1953125 0.01953125 C5.875 0.1875 5.875 0.1875 7.875 1.1875 C10.26095216 5.56174563 10.26696421 9.3271438 9.875 14.1875 C8.625 16.1875 8.625 16.1875 6.875 17.1875 C5.555 17.1875 4.235 17.1875 2.875 17.1875 C3.205 16.1975 3.535 15.2075 3.875 14.1875 C5.195 14.5175 6.515 14.8475 7.875 15.1875 C6.52217831 10.76008356 4.64201112 8.82440779 0.875 6.1875 C0.215 5.8575 -0.445 5.5275 -1.125 5.1875 C-1.4653125 6.0846875 -1.4653125 6.0846875 -1.8125 7 C-3.125 9.1875 -3.125 9.1875 -5.6875 10.625 C-8.37930285 11.97812712 -8.37930285 11.97812712 -8.9375 14.875 C-8.999375 15.638125 -9.06125 16.40125 -9.125 17.1875 C-9.455 16.5275 -9.785 15.8675 -10.125 15.1875 C-11.115 15.1875 -12.105 15.1875 -13.125 15.1875 C-13.43830487 9.96575222 -13.00515136 6.61058959 -10.125 2.1875 C-6.79818019 -0.04041553 -3.9390707 -0.05323069 0 0 Z " fill="#554A34" transform="translate(16.125,-0.1875)"/>
<path d="M0 0 C0 2.79784711 -0.37195775 4.9790678 -1 7.6875 C-1.185625 8.49574219 -1.37125 9.30398438 -1.5625 10.13671875 C-1.706875 10.75160156 -1.85125 11.36648438 -2 12 C-1.21625 12.144375 -0.4325 12.28875 0.375 12.4375 C3 13 3 13 5 14 C5 13.01 5 12.02 5 11 C5.99 11 6.98 11 8 11 C7.67 12.32 7.34 13.64 7 15 C5.68 15 4.36 15 3 15 C3.165 15.515625 3.33 16.03125 3.5 16.5625 C4.15049 19.73363876 4.0620734 22.77218334 4 26 C0.49072741 25.80504041 -0.79648221 25.20351779 -3.3125 22.6875 C-6.12976135 17.9384023 -5.74690665 12.30086176 -5 7 C-3.80440098 4.15308036 -2.19175447 2.19175447 0 0 Z " fill="#8B9268" transform="translate(5,3)"/>
<path d="M0 0 C3.45669582 -0.31424507 5.39901677 -0.37956836 8.375 1.5 C10.80664499 5.24099229 10.49174842 7.57426418 10 12 C8.75 14 8.75 14 7 15 C5.68 15 4.36 15 3 15 C3.33 14.01 3.66 13.02 4 12 C5.32 12.33 6.64 12.66 8 13 C6.62540711 8.50133235 4.61272082 6.87164988 1 4 C0.1875 1.75 0.1875 1.75 0 0 Z " fill="#3F3623" transform="translate(16,2)"/>
<path d="M0 0 C4.21073233 1.50383297 5.83237117 4.20664956 8 8 C8 8.99 8 9.98 8 11 C6.02 11 4.04 11 2 11 C1.855625 9.9275 1.71125 8.855 1.5625 7.75 C1.16250558 5.08337051 0.72408076 2.58600271 0 0 Z " fill="#84926C" transform="translate(24,2)"/>
<path d="M0 0 C0.99 0 1.98 0 3 0 C3.36923077 7.38461538 3.36923077 7.38461538 1.5 10.5 C1.005 10.995 0.51 11.49 0 12 C-1.32 11.67 -2.64 11.34 -4 11 C-3.34 9.68 -2.68 8.36 -2 7 C-1.67 7 -1.34 7 -1 7 C-0.67 4.69 -0.34 2.38 0 0 Z " fill="#658145" transform="translate(28,16)"/>
<path d="M0 0 C0.99 0 1.98 0 3 0 C2.67 1.32 2.34 2.64 2 4 C0.68 4 -0.64 4 -2 4 C-2 4.99 -2 5.98 -2 7 C-2.99 6.67 -3.98 6.34 -5 6 C-5.66 7.32 -6.32 8.64 -7 10 C-7 7.36 -7 4.72 -7 2 C-3 2 -3 2 0 3 C0 2.01 0 1.02 0 0 Z " fill="#A3875B" transform="translate(10,14)"/>
<path d="M0 0 C3.23356015 1.21258505 4.00856305 2.01284458 6 5 C4.35 5.66 2.7 6.32 1 7 C1 6.34 1 5.68 1 5 C0.01 4.67 -0.98 4.34 -2 4 C-2 3.01 -2 2.02 -2 1 C-1.34 0.67 -0.68 0.34 0 0 Z " fill="#3A311F" transform="translate(19,25)"/>
<path d="M0 0 C0.99 0.33 1.98 0.66 3 1 C3 3.31 3 5.62 3 8 C2.01 8 1.02 8 0 8 C0 5.36 0 2.72 0 0 Z " fill="#6D7745" transform="translate(6,21)"/>
<path d="M0 0 C0 3.90617433 -1.31784596 6.50629545 -3 10 C-3.99 10.495 -3.99 10.495 -5 11 C-4.54663921 6.12637153 -3.2910841 3.60957611 0 0 Z " fill="#B9A875" transform="translate(5,3)"/>
<path d="M0 0 C3.96 1.98 3.96 1.98 8 4 C8 4.66 8 5.32 8 6 C5.03824877 5.38722388 3.61941217 4.74627478 1 3 C0.67 3.66 0.34 4.32 0 5 C0 3.35 0 1.7 0 0 Z " fill="#B0925A" transform="translate(9,23)"/>
<path d="M0 0 C0.99 0 1.98 0 3 0 C3.36923077 4.55384615 3.36923077 4.55384615 1.5 6.8125 C1.005 7.204375 0.51 7.59625 0 8 C0 5.36 0 2.72 0 0 Z " fill="#496F54" transform="translate(28,16)"/>
<path d="M0 0 C0.99 0.33 1.98 0.66 3 1 C3 2.98 3 4.96 3 7 C2.67 6.34 2.34 5.68 2 5 C1.01 5 0.02 5 -1 5 C-0.67 3.35 -0.34 1.7 0 0 Z " fill="#50422C" transform="translate(4,10)"/>
<path d="M0 0 C0.66 0.33 1.32 0.66 2 1 C2.33 1.99 2.66 2.98 3 4 C0.69 4 -1.62 4 -4 4 C-2 1 -2 1 0 0 Z " fill="#AA895B" transform="translate(11,9)"/>
<path d="M0 0 C0.66 0 1.32 0 2 0 C2.33 0.99 2.66 1.98 3 3 C2.01 3.33 1.02 3.66 0 4 C0 5.65 0 7.3 0 9 C-0.33 9 -0.66 9 -1 9 C-1.09765625 2.84765625 -1.09765625 2.84765625 -1 1 C-0.67 0.67 -0.34 0.34 0 0 Z " fill="#C09F68" transform="translate(4,15)"/>
</svg>
